<?xml version="1.0" encoding="UTF-8"?><svg id="Layer_2" xmlns="http://www.w3.org/2000/svg" viewBox="0 0 128.18 172.23"><defs><style>.cls-1{fill:#42a99b;}.cls-2{fill:#49b1a2;}.cls-3{fill:#55c9b5;}.cls-4{fill:#b4fcee;}.cls-5{fill:#52bfb0;}.cls-6{fill:#4eb8a8;}.cls-7{fill:#5ad1bd;}</style></defs><g id="Layer_1-2"><path class="cls-1" d="M81.1,162.85l-15.56,8.98c-.9.52-2,.52-2.9,0l-15.56-8.98c-1.93-1.12-1.93-3.91,0-5.02l15.56-8.98c.9-.52,2-.52,2.9,0l15.56,8.98c1.93,1.12,1.93,3.91,0,5.02Z"/><path class="cls-3" d="M64.09,98.67v24.67l-21.36,12.33-21.36,12.33h0c-9.5-5.48-9.5-19.19,0-24.67h0s21.36-12.33,21.36-12.33h0l21.36-12.33Z"/><path class="cls-4" d="M64.09,0v24.67l-21.36,12.33-21.36,12.33h0C11.87,54.82,0,47.97,0,37h0s0,0,0,0l21.36-12.33,21.36-12.33L64.09,0Z"/><path class="cls-7" d="M64.09,49.34v24.67l-21.36,12.33h0l-21.36,12.33L0,111.01v-18.63c0-3.74,1.99-7.19,5.23-9.06l16.13-9.31,21.36-12.33,21.36-12.33Z"/><path class="cls-5" d="M128.18,37h0c0,10.96-11.87,17.82-21.36,12.33h0s0,0,0,0l-21.36-12.33-21.36-12.33V0l21.36,12.33,21.36,12.33h0l21.36,12.33Z"/><path class="cls-6" d="M128.18,92.36v18.65l-21.36-12.33h0l-21.36-12.33-21.36-12.33v-24.67l21.36,12.33,21.36,12.33,16.15,9.32c3.23,1.86,5.22,5.31,5.22,9.03Z"/><path class="cls-2" d="M106.82,123.34c9.49,5.48,9.49,19.18,0,24.67h0s0,0,0,0l-21.36-12.33-21.36-12.33v-24.67l21.36,12.33,21.36,12.33h0Z"/></g></svg>