<?xml version="1.0" encoding="UTF-8"?><svg id="Layer_2" xmlns="http://www.w3.org/2000/svg" viewBox="0 0 514.77 264.14"><defs><style>.cls-1{font-family:Montserrat-Light, Montserrat;font-size:18.37px;font-weight:300;}.cls-1,.cls-2{fill:#fff;}.cls-3{fill:#42a99b;}.cls-2{font-family:Montserrat-Black, Montserrat;font-size:65.32px;font-weight:800;}.cls-4{fill:#49b1a2;}.cls-5{letter-spacing:.02em;}.cls-6{fill:#55c9b5;}.cls-7{letter-spacing:-.04em;}.cls-8{fill:#b4fcee;}.cls-9{letter-spacing:.04em;}.cls-10{fill:#52bfb0;}.cls-11{letter-spacing:.02em;}.cls-12{fill:#4eb8a8;}.cls-13{letter-spacing:-.01em;}.cls-14{fill:#5ad1bd;}</style></defs><g id="Layer_1-2"><path class="cls-3" d="M243.58,99.34l-8.22,4.75c-.47.27-1.06.27-1.53,0l-8.22-4.75c-1.02-.59-1.02-2.06,0-2.65l8.22-4.75c.47-.27,1.06-.27,1.53,0l8.22,4.75c1.02.59,1.02,2.06,0,2.65Z"/><path class="cls-3" d="M81.1,162.85l-15.56,8.98c-.9.52-2,.52-2.9,0l-15.56-8.98c-1.93-1.12-1.93-3.91,0-5.02l15.56-8.98c.9-.52,2-.52,2.9,0l15.56,8.98c1.93,1.12,1.93,3.91,0,5.02Z"/><path class="cls-6" d="M64.09,98.67v24.67l-21.36,12.33-21.36,12.33h0c-9.5-5.48-9.5-19.19,0-24.67h0s21.36-12.33,21.36-12.33h0l21.36-12.33Z"/><path class="cls-8" d="M64.09,0v24.67l-21.36,12.33-21.36,12.33h0C11.87,54.82,0,47.97,0,37h0s0,0,0,0l21.36-12.33,21.36-12.33L64.09,0Z"/><path class="cls-14" d="M64.09,49.34v24.67l-21.36,12.33h0l-21.36,12.33L0,111.01v-18.63c0-3.74,1.99-7.19,5.23-9.06l16.13-9.31,21.36-12.33,21.36-12.33Z"/><path class="cls-10" d="M128.18,37h0c0,10.96-11.87,17.82-21.36,12.33h0s0,0,0,0l-21.36-12.33-21.36-12.33V0l21.36,12.33,21.36,12.33h0l21.36,12.33Z"/><path class="cls-12" d="M128.18,92.36v18.65l-21.36-12.33h0l-21.36-12.33-21.36-12.33v-24.67l21.36,12.33,21.36,12.33,16.15,9.32c3.23,1.86,5.22,5.31,5.22,9.03Z"/><path class="cls-4" d="M106.82,123.34c9.49,5.48,9.49,19.18,0,24.67h0s0,0,0,0l-21.36-12.33-21.36-12.33v-24.67l21.36,12.33,21.36,12.33h0Z"/><text class="cls-2" transform="translate(169.17 120.39)"><tspan class="cls-9" x="0" y="0">B </tspan><tspan class="cls-13" x="75.32" y="0">W</tspan><tspan class="cls-9" x="153.12" y="0">ell</tspan></text><text class="cls-1" transform="translate(180.3 143.44)"><tspan class="cls-11" x="0" y="0">The Uni </tspan><tspan class="cls-7" x="77.79" y="0">W</tspan><tspan class="cls-5" x="97.32" y="0">ellbeing app</tspan></text></g></svg>